<?xml version="1.0" encoding="UTF-8"?>
<svg width="16px"
     height="16px"
     viewBox="0 0 16 16"
     xmlns="http://www.w3.org/2000/svg">

  <path
    d="
      M3.042969 1
      C1.914062 1 1 1.914062 1 3.042969
      V12.917969
      C1 14.050781 1.914062 14.960938 3.042969 14.960938
      H12.957031
      C14.085938 14.960938 15 14.050781 15 12.917969
      V3.042969
      C15 1.914062 14.085938 1 12.957031 1
      Z

      M3 5.960938
      H13
      V12.960938
      H3
      Z

      M4 7
      H6
      V9
      H4
      Z

      M7 7
      H9
      V9
      H7
      Z

      M10 7
      H12
      V9
      H10
      Z

      M4 10
      H6
      V12
      H4
      Z

      M7 10
      H9
      V12
      H7
      Z
    "/>

</svg>
