<svg width="64" height="64" viewBox="0 0 64 64" fill="none" xmlns="http://www.w3.org/2000/svg">
<mask id="mask0_78_53" style="mask-type:alpha" maskUnits="userSpaceOnUse" x="4" y="4" width="57" height="57">
<path d="M20.2598 4.00033C14.4778 4.00033 10.5172 5.72462 7.93872 8.5351C5.37358 11.3313 4 15.3388 4 19.8766V44.1242C4 48.662 5.37339 52.6695 7.93872 55.4657C10.5171 58.276 14.4778 60.0004 20.2598 60.0004H43.809C49.5911 60.0004 53.5517 58.2761 56.1302 55.4657C58.6953 52.6695 60.0005 49.0305 60.0005 44.1242V20.7871C60.0005 14.8519 58.6955 11.3309 56.1302 8.53472C53.5518 5.7244 49.5911 3.99995 43.809 3.99995H25.4942L20.2598 4.00033Z" fill="url(#paint0_linear_78_53)"/>
</mask>
<g mask="url(#mask0_78_53)">
<path d="M20.2598 4.00033C14.4778 4.00033 10.5172 5.72462 7.93872 8.5351C5.37358 11.3313 4 15.3388 4 19.8766V44.1242C4 48.662 5.37339 52.6695 7.93872 55.4657C10.5171 58.276 14.4778 60.0004 20.2598 60.0004H43.809C49.5911 60.0004 53.5517 58.2761 56.1302 55.4657C58.6953 52.6695 60.0005 49.0305 60.0005 44.1242V20.7871C60.0005 14.8519 58.6955 11.3309 56.1302 8.53472C53.5518 5.7244 49.5911 3.99995 43.809 3.99995H25.4942L20.2598 4.00033Z" fill="url(#paint1_linear_78_53)"/>
<g filter="url(#filter0_f_78_53)">
<circle cx="56.9639" cy="27" r="27" transform="rotate(-180 56.9639 27)" fill="url(#paint2_radial_78_53)"/>
</g>
<g filter="url(#filter1_f_78_53)">
<circle cx="48.9639" cy="51.6207" r="23" transform="rotate(-180 48.9639 51.6207)" fill="url(#paint3_radial_78_53)"/>
</g>
<g filter="url(#filter2_f_78_53)">
<circle cx="27.9639" cy="58.6207" r="21" transform="rotate(-180 27.9639 58.6207)" fill="url(#paint4_radial_78_53)"/>
</g>
<g filter="url(#filter3_f_78_53)">
<circle cx="10.9639" cy="30.6207" r="21" transform="rotate(-180 10.9639 30.6207)" fill="url(#paint5_radial_78_53)"/>
</g>
<g filter="url(#filter4_f_78_53)">
<circle cx="12.9639" cy="47.6207" r="21" transform="rotate(-180 12.9639 47.6207)" fill="url(#paint6_radial_78_53)"/>
</g>
</g>
<path d="M31.3838 19.0438C33.3838 17.8891 35.8838 19.333 35.8838 21.6424C35.8838 22.1591 35.6082 22.6365 35.1607 22.8949L26.8916 27.6698C23.5584 29.5942 23.5577 34.4052 26.8906 36.3299L35.159 41.1029C35.6075 41.3618 35.8838 41.8404 35.8838 42.3582C35.8837 44.6675 33.3837 46.1106 31.3838 44.9559L13.4434 34.5985C11.4434 33.4438 11.4434 30.5569 13.4434 29.4022L31.3838 19.0438Z" fill="url(#paint7_linear_78_53)"/>
<path d="M28.5796 34.5981C26.5796 33.4434 26.5796 30.5566 28.5796 29.4019L46.5203 19.0439C48.5203 17.8892 51.0203 19.3325 51.0203 21.6419L51.0203 42.3581C51.0203 44.6675 48.5203 46.1108 46.5203 44.9561L28.5796 34.5981Z" fill="url(#paint8_linear_78_53)"/>
<g opacity="0.5" filter="url(#filter5_f_78_53)">
<path opacity="0.8" d="M20.2598 3.99995C14.4778 3.99995 10.5179 5.72485 7.93948 8.5351C5.37434 11.3313 4 15.3391 4 19.8769V44.1231C4 48.6609 5.3743 52.6684 7.93948 55.4649C10.5179 58.2752 14.4778 60 20.2598 60H43.8087C49.5907 60 53.5506 58.2752 56.129 55.4649C58.6942 52.6687 60.0001 49.0294 60.0001 44.1231V20.7871C60.0001 14.8519 58.6942 11.3312 56.129 8.5351C53.5506 5.72478 49.5907 3.99995 43.8087 3.99995H25.4942H20.2598ZM20.256 4.998H43.8127C49.3959 4.998 53.0236 6.62825 55.3949 9.21301C57.7916 11.8257 58.9984 14.9984 58.9984 20.7873V44.1233C58.9984 48.8523 57.7821 52.1871 55.3949 54.7893C53.0236 57.3739 49.3963 58.9983 43.8127 58.9983H20.256C14.6727 58.9983 11.0451 57.3739 8.67374 54.7893C6.31009 52.2127 4.99797 48.4596 4.99797 44.1233V19.879C4.99797 15.5431 6.31013 11.7896 8.67374 9.21301C11.0451 6.62848 14.6723 4.998 20.256 4.998Z" fill="url(#paint9_linear_78_53)"/>
<path opacity="0.8" d="M20.2598 3.99995C14.4778 3.99995 10.5179 5.72485 7.93948 8.5351C5.37434 11.3313 4 15.3391 4 19.8769V44.1231C4 48.6609 5.3743 52.6684 7.93948 55.4649C10.5179 58.2752 14.4778 60 20.2598 60H43.8087C49.5907 60 53.5506 58.2752 56.129 55.4649C58.6942 52.6687 60.0001 49.0294 60.0001 44.1231V20.7871C60.0001 14.8519 58.6942 11.3312 56.129 8.5351C53.5506 5.72478 49.5907 3.99995 43.8087 3.99995H25.4942H20.2598ZM20.256 4.998H43.8127C49.3959 4.998 53.0236 6.62825 55.3949 9.21301C57.7916 11.8257 58.9984 14.9984 58.9984 20.7873V44.1233C58.9984 48.8523 57.7821 52.1871 55.3949 54.7893C53.0236 57.3739 49.3963 58.9983 43.8127 58.9983H20.256C14.6727 58.9983 11.0451 57.3739 8.67374 54.7893C6.31009 52.2127 4.99797 48.4596 4.99797 44.1233V19.879C4.99797 15.5431 6.31013 11.7896 8.67374 9.21301C11.0451 6.62848 14.6723 4.998 20.256 4.998Z" fill="url(#paint10_linear_78_53)"/>
</g>
<defs>
<filter id="filter0_f_78_53" x="19.9639" y="-10" width="74" height="74" filterUnits="userSpaceOnUse" color-interpolation-filters="sRGB">
<feFlood flood-opacity="0" result="BackgroundImageFix"/>
<feBlend mode="normal" in="SourceGraphic" in2="BackgroundImageFix" result="shape"/>
<feGaussianBlur stdDeviation="5" result="effect1_foregroundBlur_78_53"/>
</filter>
<filter id="filter1_f_78_53" x="15.9639" y="18.6207" width="66" height="66" filterUnits="userSpaceOnUse" color-interpolation-filters="sRGB">
<feFlood flood-opacity="0" result="BackgroundImageFix"/>
<feBlend mode="normal" in="SourceGraphic" in2="BackgroundImageFix" result="shape"/>
<feGaussianBlur stdDeviation="5" result="effect1_foregroundBlur_78_53"/>
</filter>
<filter id="filter2_f_78_53" x="-3.03613" y="27.6207" width="62" height="62" filterUnits="userSpaceOnUse" color-interpolation-filters="sRGB">
<feFlood flood-opacity="0" result="BackgroundImageFix"/>
<feBlend mode="normal" in="SourceGraphic" in2="BackgroundImageFix" result="shape"/>
<feGaussianBlur stdDeviation="5" result="effect1_foregroundBlur_78_53"/>
</filter>
<filter id="filter3_f_78_53" x="-20.0361" y="-0.379265" width="62" height="62" filterUnits="userSpaceOnUse" color-interpolation-filters="sRGB">
<feFlood flood-opacity="0" result="BackgroundImageFix"/>
<feBlend mode="normal" in="SourceGraphic" in2="BackgroundImageFix" result="shape"/>
<feGaussianBlur stdDeviation="5" result="effect1_foregroundBlur_78_53"/>
</filter>
<filter id="filter4_f_78_53" x="-18.0361" y="16.6207" width="62" height="62" filterUnits="userSpaceOnUse" color-interpolation-filters="sRGB">
<feFlood flood-opacity="0" result="BackgroundImageFix"/>
<feBlend mode="normal" in="SourceGraphic" in2="BackgroundImageFix" result="shape"/>
<feGaussianBlur stdDeviation="5" result="effect1_foregroundBlur_78_53"/>
</filter>
<filter id="filter5_f_78_53" x="3.44" y="3.43995" width="57.12" height="57.1201" filterUnits="userSpaceOnUse" color-interpolation-filters="sRGB">
<feFlood flood-opacity="0" result="BackgroundImageFix"/>
<feBlend mode="normal" in="SourceGraphic" in2="BackgroundImageFix" result="shape"/>
<feGaussianBlur stdDeviation="0.28" result="effect1_foregroundBlur_78_53"/>
</filter>
<linearGradient id="paint0_linear_78_53" x1="32" y1="3.99995" x2="32" y2="60.0012" gradientUnits="userSpaceOnUse">
<stop stop-color="#17B8E6"/>
<stop offset="1" stop-color="#3387FF"/>
</linearGradient>
<linearGradient id="paint1_linear_78_53" x1="32" y1="3.99995" x2="32" y2="60.0012" gradientUnits="userSpaceOnUse">
<stop stop-color="#5059C9"/>
<stop offset="1" stop-color="#7E9CFF"/>
</linearGradient>
<radialGradient id="paint2_radial_78_53" cx="0" cy="0" r="1" gradientUnits="userSpaceOnUse" gradientTransform="translate(56.9639 27) rotate(90) scale(27)">
<stop offset="0.403846" stop-color="#66BE72"/>
<stop offset="1" stop-color="#58B982" stop-opacity="0"/>
</radialGradient>
<radialGradient id="paint3_radial_78_53" cx="0" cy="0" r="1" gradientUnits="userSpaceOnUse" gradientTransform="translate(48.9639 51.6207) rotate(90) scale(23)">
<stop offset="0.4" stop-color="#D6BA2C"/>
<stop offset="1" stop-color="#D6BA2C" stop-opacity="0"/>
</radialGradient>
<radialGradient id="paint4_radial_78_53" cx="0" cy="0" r="1" gradientUnits="userSpaceOnUse" gradientTransform="translate(27.9639 58.6207) rotate(90) scale(21)">
<stop offset="0.4" stop-color="#F78723"/>
<stop offset="1" stop-color="#F68525" stop-opacity="0"/>
</radialGradient>
<radialGradient id="paint5_radial_78_53" cx="0" cy="0" r="1" gradientUnits="userSpaceOnUse" gradientTransform="translate(10.9639 30.6207) rotate(90) scale(21)">
<stop offset="0.4" stop-color="#8C74BA"/>
<stop offset="1" stop-color="#8C74BA" stop-opacity="0"/>
</radialGradient>
<radialGradient id="paint6_radial_78_53" cx="0" cy="0" r="1" gradientUnits="userSpaceOnUse" gradientTransform="translate(12.9639 47.6207) rotate(90) scale(21)">
<stop offset="0.4" stop-color="#EF5442"/>
<stop offset="1" stop-color="#EB514A" stop-opacity="0"/>
</radialGradient>
<linearGradient id="paint7_linear_78_53" x1="36.8495" y1="43.4168" x2="10.5675" y2="21.8636" gradientUnits="userSpaceOnUse">
<stop stop-color="#F4FBFF"/>
<stop offset="1" stop-color="#E2EDF4"/>
</linearGradient>
<linearGradient id="paint8_linear_78_53" x1="57.3853" y1="12.5905" x2="24.5363" y2="48.4733" gradientUnits="userSpaceOnUse">
<stop stop-color="#F4FBFF"/>
<stop offset="1" stop-color="#E2EDF4"/>
</linearGradient>
<linearGradient id="paint9_linear_78_53" x1="25.4942" y1="3.99995" x2="39.9996" y2="42.7549" gradientUnits="userSpaceOnUse">
<stop stop-color="white"/>
<stop offset="1" stop-color="white" stop-opacity="0"/>
</linearGradient>
<linearGradient id="paint10_linear_78_53" x1="57.0002" y1="55.9986" x2="48.001" y2="46.0015" gradientUnits="userSpaceOnUse">
<stop stop-color="white"/>
<stop offset="1" stop-color="white" stop-opacity="0"/>
</linearGradient>
</defs>
</svg>
